<svg width="16" height="14" viewBox="0 0 16 14" fill="none" xmlns="http://www.w3.org/2000/svg">
<path d="M11.8335 6.23869C11.2551 6.15457 10.7124 5.91789 10.2657 5.55501C9.81911 5.19213 9.48613 4.7173 9.3039 4.18341C9.12166 3.64951 9.09732 3.07751 9.23359 2.53111C9.36985 1.98471 9.66137 1.48536 10.0757 1.08869C11.3106 -0.0973588 13.6867 -0.455671 14.9216 0.73038C15.0031 0.808614 15.0784 0.892549 15.1469 0.981492L11.8335 6.23869Z" fill="url(#paint0_linear)"/>
<path d="M14.5486 5.38398C14.198 5.7215 13.7693 5.9748 13.2976 6.1233C12.8258 6.27181 12.3242 6.31132 11.8336 6.23865C11.638 5.68424 11.571 5.09548 11.6372 4.51358C11.7033 3.93168 11.9011 3.3707 12.2167 2.86991C12.5323 2.36912 12.958 1.94063 13.4641 1.61442C13.9702 1.28822 14.5443 1.07218 15.1465 0.981445C16.1057 2.21547 15.7015 4.27723 14.5486 5.38398Z" fill="url(#paint1_linear)"/>
<path d="M3.84854 6.23869C4.42695 6.15457 4.96971 5.91789 5.41634 5.55501C5.86297 5.19213 6.19594 4.7173 6.37818 4.18341C6.56042 3.64951 6.58476 3.07751 6.44849 2.53111C6.31223 1.98471 6.02071 1.48536 5.6064 1.08869C4.37146 -0.0973588 1.99537 -0.455671 0.760941 0.73038C0.679179 0.808483 0.603701 0.892428 0.535156 0.981492L3.84854 6.23869Z" fill="url(#paint2_linear)"/>
<path d="M1.13403 5.38398C1.48459 5.72149 1.91312 5.97479 2.3848 6.1233C2.85647 6.2718 3.35797 6.31132 3.84855 6.23865C3.9958 5.82267 4.07071 5.38623 4.07025 4.94686C4.07001 3.98971 3.71365 3.06415 3.06544 2.33713C2.41723 1.6101 1.51985 1.12947 0.535165 0.981934C-0.42098 2.21547 -0.0193582 4.27723 1.13403 5.38398Z" fill="url(#paint3_linear)"/>
<path d="M2.37432 2.65754C2.27766 2.56513 2.1615 2.49369 2.03367 2.44802C1.90584 2.40236 1.76931 2.38353 1.63326 2.39281C1.49722 2.40208 1.36482 2.43925 1.24499 2.5018C1.12516 2.56436 1.02068 2.65084 0.938577 2.75544C0.661235 3.10545 0.412941 3.47583 0.195984 3.86317C0.378604 4.43426 0.69985 4.95552 1.13327 5.38404C1.38193 5.62333 1.67047 5.82103 1.98697 5.96899L2.62253 3.5264C2.66269 3.37331 2.66093 3.21285 2.61744 3.06061C2.57395 2.90837 2.4902 2.76952 2.37432 2.65754Z" fill="#FD748D"/>
<path d="M0.795615 8.651C0.756299 8.36473 0.736719 8.07628 0.737003 7.78753C0.752873 5.988 1.50833 4.26737 2.83888 3.00027C4.16942 1.73317 5.96731 1.02222 7.84107 1.02222C9.71483 1.02222 11.5127 1.73317 12.8433 3.00027C14.1738 4.26737 14.9293 5.988 14.9451 7.78753C14.9457 8.07645 14.9261 8.36508 14.8865 8.65149L0.795615 8.651Z" fill="url(#paint4_linear)"/>
<path d="M14.887 8.65136C14.4365 11.8708 11.4534 13.1229 7.8413 13.1229C4.22926 13.1229 1.24563 11.8708 0.795593 8.65087C2.63041 6.96602 4.46523 7.55978 6.40199 4.0447C6.54023 3.79364 6.74778 3.58398 7.00187 3.4387C7.19178 3.32966 7.40275 3.25875 7.62201 3.23026C7.84127 3.20176 8.06427 3.21628 8.27752 3.27292C8.49077 3.32957 8.68985 3.42717 8.8627 3.55983C9.03555 3.69248 9.17859 3.85743 9.28317 4.0447C11.2164 7.55978 13.0547 6.96602 14.8896 8.65136H14.887Z" fill="url(#paint5_linear)"/>
<path d="M3.28227 7.89811C3.71013 7.89811 4.05697 7.6303 4.05697 7.29995C4.05697 6.96959 3.71013 6.70178 3.28227 6.70178C2.85441 6.70178 2.50757 6.96959 2.50757 7.29995C2.50757 7.6303 2.85441 7.89811 3.28227 7.89811Z" fill="#FFAECF"/>
<path d="M12.3998 7.89811C12.8277 7.89811 13.1745 7.6303 13.1745 7.29995C13.1745 6.96959 12.8277 6.70178 12.3998 6.70178C11.972 6.70178 11.6251 6.96959 11.6251 7.29995C11.6251 7.6303 11.972 7.89811 12.3998 7.89811Z" fill="#FFAECF"/>
<path d="M4.61049 7.29993C5.45889 7.29993 6.14665 6.6394 6.14665 5.82459C6.14665 5.00978 5.45889 4.34924 4.61049 4.34924C3.7621 4.34924 3.07434 5.00978 3.07434 5.82459C3.07434 6.6394 3.7621 7.29993 4.61049 7.29993Z" fill="white"/>
<path d="M11.0716 7.29993C11.92 7.29993 12.6078 6.6394 12.6078 5.82459C12.6078 5.00978 11.92 4.34924 11.0716 4.34924C10.2232 4.34924 9.53546 5.00978 9.53546 5.82459C9.53546 6.6394 10.2232 7.29993 11.0716 7.29993Z" fill="white"/>
<path d="M4.61052 6.7042C5.11635 6.7042 5.5264 6.31038 5.5264 5.82457C5.5264 5.33877 5.11635 4.94495 4.61052 4.94495C4.1047 4.94495 3.69464 5.33877 3.69464 5.82457C3.69464 6.31038 4.1047 6.7042 4.61052 6.7042Z" fill="#383842"/>
<path d="M11.0716 6.7042C11.5774 6.7042 11.9875 6.31038 11.9875 5.82457C11.9875 5.33877 11.5774 4.94495 11.0716 4.94495C10.5658 4.94495 10.1557 5.33877 10.1557 5.82457C10.1557 6.31038 10.5658 6.7042 11.0716 6.7042Z" fill="#383842"/>
<path d="M8.35096 7.77034C8.169 7.76894 7.99159 7.71561 7.84128 7.61713C7.69111 7.71588 7.51361 7.76924 7.33161 7.77034C7.19892 7.76803 7.06816 7.7393 6.94762 7.68597C6.82708 7.63263 6.71938 7.55585 6.63132 7.46049C6.58665 7.4117 6.56355 7.34811 6.56691 7.28322C6.57027 7.21833 6.59984 7.15726 6.64934 7.11298C6.69883 7.06869 6.76435 7.04468 6.83198 7.04605C6.89961 7.04741 6.96402 7.07404 7.01154 7.12028C7.0493 7.16722 7.09777 7.20523 7.15321 7.23137C7.20865 7.25752 7.26959 7.27112 7.33136 7.27112C7.39312 7.27112 7.45406 7.25752 7.50951 7.23137C7.56495 7.20523 7.61341 7.16722 7.65118 7.12028C7.6755 7.09523 7.70493 7.07526 7.73763 7.0616C7.77034 7.04794 7.80562 7.04089 7.84128 7.04089C7.87695 7.04089 7.91223 7.04794 7.94493 7.0616C7.97764 7.07526 8.00707 7.09523 8.03139 7.12028C8.06916 7.16722 8.11762 7.20523 8.17306 7.23137C8.2285 7.25752 8.28944 7.27112 8.35121 7.27112C8.41297 7.27112 8.47392 7.25752 8.52936 7.23137C8.5848 7.20523 8.63326 7.16722 8.67103 7.12028C8.71854 7.07404 8.78295 7.04741 8.85058 7.04605C8.91821 7.04468 8.98373 7.06869 9.03323 7.11298C9.08272 7.15726 9.11229 7.21833 9.11566 7.28322C9.11902 7.34811 9.09591 7.4117 9.05124 7.46049C8.96328 7.55584 8.85567 7.63261 8.73521 7.68595C8.61476 7.73929 8.48408 7.76802 8.35146 7.77034H8.35096Z" fill="#383842"/>
<defs>
<linearGradient id="paint0_linear" x1="982.868" y1="1488.3" x2="1675.18" y2="1488.3" gradientUnits="userSpaceOnUse">
<stop stop-color="#4F4C5F"/>
<stop offset="1" stop-color="#77718A"/>
</linearGradient>
<linearGradient id="paint1_linear" x1="11.6131" y1="3.62681" x2="15.6831" y2="3.62681" gradientUnits="userSpaceOnUse">
<stop stop-color="#FD869C"/>
<stop offset="1" stop-color="#FDB0BF"/>
</linearGradient>
<linearGradient id="paint2_linear" x1="-20.0457" y1="1488.3" x2="672.264" y2="1488.3" gradientUnits="userSpaceOnUse">
<stop stop-color="#77718A"/>
<stop offset="1" stop-color="#4F4C5F"/>
</linearGradient>
<linearGradient id="paint3_linear" x1="-0.000225107" y1="3.62681" x2="4.07032" y2="3.62681" gradientUnits="userSpaceOnUse">
<stop stop-color="#FDB0BF"/>
<stop offset="1" stop-color="#FD869C"/>
</linearGradient>
<linearGradient id="paint4_linear" x1="7.84144" y1="8.65125" x2="7.84144" y2="0.96422" gradientUnits="userSpaceOnUse">
<stop stop-color="#FDB58A"/>
<stop offset="1" stop-color="#3C2313"/>
</linearGradient>
<linearGradient id="paint5_linear" x1="7.84142" y1="13.1232" x2="7.84142" y2="3.21538" gradientUnits="userSpaceOnUse">
<stop stop-color="#FFF5E3"/>
<stop offset="1" stop-color="#F0A83E"/>
</linearGradient>
</defs>
</svg>
