<svg width="19" height="15" viewBox="0 0 19 15" fill="none" xmlns="http://www.w3.org/2000/svg">
<path d="M13.6752 0.407018C14.5666 -0.164715 15.7373 -0.124087 16.6155 0.465757C17.4228 0.995981 18.0184 1.77413 18.3045 2.67241C18.4126 3.0138 18.406 3.37921 18.2857 3.71681C18.1655 4.05442 17.9375 4.34708 17.6343 4.5533C17.3311 4.75951 16.968 4.86881 16.5965 4.86569C16.225 4.86257 15.8639 4.7472 15.5645 4.53593L12.6313 2.46437C12.6313 1.39238 13.1104 0.769246 13.6752 0.408486V0.407018Z" fill="url(#paint0_linear)"/>
<path d="M4.70486 0.407018C3.81344 -0.164715 2.64272 -0.124087 1.76558 0.465757C0.958212 0.995981 0.362587 1.77413 0.0765221 2.67241C-0.0315673 3.0138 -0.025001 3.37921 0.0952903 3.71681C0.215582 4.05442 0.443491 4.34708 0.746697 4.5533C1.0499 4.75951 1.41301 4.86881 1.78453 4.86569C2.15605 4.86257 2.51711 4.7472 2.81652 4.53593L5.74969 2.46437C5.74969 1.39238 5.2706 0.769246 4.70588 0.408486L4.70486 0.407018Z" fill="url(#paint1_linear)"/>
<path d="M4.16109 2.24308C3.99616 2.08492 3.77262 1.99609 3.53955 1.99609C3.30648 1.99609 3.08294 2.08492 2.918 2.24308C2.1617 2.96363 1.54535 3.80804 1.09796 4.73658C1.37855 4.8474 1.68409 4.88706 1.98524 4.85174C2.28639 4.81642 2.57302 4.70732 2.8176 4.5349L4.29565 3.27053C4.39535 3.10928 4.43626 2.92071 4.41189 2.73464C4.38752 2.54856 4.29927 2.37559 4.16109 2.24308Z" fill="#5C586F"/>
<path d="M16.5007 9.70751C16.0685 12.7424 14.039 14.3763 9.18998 14.3763C3.64627 14.3763 1.78851 12.2421 1.78851 8.31636C1.78894 7.19938 2.06327 6.0982 2.58931 5.102C3.11534 4.1058 3.87828 3.2426 4.81633 2.58231C5.75438 1.92202 6.84117 1.4832 7.98868 1.30139C9.13619 1.11958 10.3122 1.1999 11.4213 1.53584L16.5007 9.70751Z" fill="url(#paint2_linear)"/>
<path d="M16.592 8.31824C16.5942 8.7834 16.5637 9.24817 16.5007 9.70939C15.7941 9.89738 15.0517 9.92603 14.3317 9.7931C13.6116 9.66017 12.9332 9.36925 12.3495 8.94305C11.7657 8.51685 11.2924 7.96688 10.9665 7.33605C10.6405 6.70523 10.4707 6.0106 10.4703 5.30636C10.4703 3.34837 10.6782 2.19512 11.4188 1.53723C12.9195 1.99275 14.2301 2.89569 15.1603 4.11502C16.0905 5.33435 16.592 6.80664 16.592 8.31824Z" fill="url(#paint3_linear)"/>
<path d="M4.19063 8.27181C4.65986 8.27181 5.04025 7.97815 5.04025 7.61589C5.04025 7.25363 4.65986 6.95996 4.19063 6.95996C3.72139 6.95996 3.341 7.25363 3.341 7.61589C3.341 7.97815 3.72139 8.27181 4.19063 8.27181Z" fill="#FFAECF"/>
<path d="M14.1894 8.27181C14.6586 8.27181 15.039 7.97815 15.039 7.61589C15.039 7.25363 14.6586 6.95996 14.1894 6.95996C13.7202 6.95996 13.3398 7.25363 13.3398 7.61589C13.3398 7.97815 13.7202 8.27181 14.1894 8.27181Z" fill="#FFAECF"/>
<path d="M7.31099 6.25751C7.4601 5.37531 6.83633 4.54405 5.91776 4.40085C4.9992 4.25765 4.13368 4.85673 3.98458 5.73893C3.83547 6.62114 4.45924 7.45239 5.37781 7.59559C6.29637 7.7388 7.16189 7.13972 7.31099 6.25751Z" fill="white"/>
<path d="M12.7328 7.61583C13.6634 7.61583 14.4177 6.8913 14.4177 5.99755C14.4177 5.1038 13.6634 4.37927 12.7328 4.37927C11.8022 4.37927 11.0478 5.1038 11.0478 5.99755C11.0478 6.8913 11.8022 7.61583 12.7328 7.61583Z" fill="white"/>
<path d="M6.66009 6.11344C6.74882 5.58619 6.37571 5.08969 5.82673 5.00448C5.27775 4.91927 4.76079 5.27761 4.67206 5.80486C4.58334 6.3321 4.95645 6.8286 5.50543 6.91381C6.05441 6.99902 6.57137 6.64068 6.66009 6.11344Z" fill="#383842"/>
<path d="M12.7328 6.96182C13.2873 6.96182 13.7368 6.53009 13.7368 5.99751C13.7368 5.46494 13.2873 5.0332 12.7328 5.0332C12.1782 5.0332 11.7287 5.46494 11.7287 5.99751C11.7287 6.53009 12.1782 6.96182 12.7328 6.96182Z" fill="#383842"/>
<path d="M9.7491 8.10778C9.54816 8.10652 9.35246 8.04604 9.18846 7.9345C9.02447 8.04604 8.82877 8.10652 8.62782 8.10778C8.48631 8.10481 8.34696 8.07375 8.21855 8.01655C8.09013 7.95935 7.97543 7.87725 7.88166 7.77541C7.8584 7.7514 7.8403 7.72323 7.82838 7.6925C7.81645 7.66177 7.81095 7.62908 7.81218 7.59631C7.81341 7.56354 7.82135 7.53132 7.83555 7.50149C7.84974 7.47167 7.86991 7.44482 7.89491 7.42248C7.91991 7.40015 7.94925 7.38275 7.98124 7.37131C8.01324 7.35986 8.04727 7.35457 8.08139 7.35575C8.11552 7.35693 8.14906 7.36456 8.18012 7.37819C8.21117 7.39183 8.23913 7.4112 8.26239 7.43521C8.30608 7.4892 8.36204 7.53288 8.42599 7.56293C8.48994 7.59298 8.56019 7.6086 8.63139 7.6086C8.70258 7.6086 8.77284 7.59298 8.83679 7.56293C8.90074 7.53288 8.9567 7.4892 9.00039 7.43521C9.02472 7.41016 9.05414 7.39018 9.08685 7.37652C9.11955 7.36287 9.15484 7.35582 9.1905 7.35582C9.22616 7.35582 9.26145 7.36287 9.29415 7.37652C9.32686 7.39018 9.35629 7.41016 9.38061 7.43521C9.4243 7.4892 9.48026 7.53288 9.54421 7.56293C9.60816 7.59298 9.67842 7.6086 9.74961 7.6086C9.82081 7.6086 9.89106 7.59298 9.95501 7.56293C10.019 7.53288 10.0749 7.4892 10.1186 7.43521C10.1419 7.4112 10.1698 7.39183 10.2009 7.37819C10.2319 7.36456 10.2655 7.35693 10.2996 7.35575C10.3337 7.35457 10.3678 7.35986 10.3998 7.37131C10.4318 7.38275 10.4611 7.40015 10.4861 7.42248C10.5111 7.44482 10.5313 7.47167 10.5455 7.50149C10.5596 7.53132 10.5676 7.56354 10.5688 7.59631C10.5701 7.62908 10.5645 7.66177 10.5526 7.6925C10.5407 7.72323 10.5226 7.7514 10.4993 7.77541C10.4052 7.87767 10.2899 7.96002 10.1608 8.01723C10.0318 8.07445 9.89173 8.10528 9.74961 8.10778H9.7491Z" fill="#383842"/>
<path d="M10.113 6.30304C10.113 6.58891 9.69966 6.81995 9.18999 6.81995C8.68031 6.81995 8.26697 6.58891 8.26697 6.30304C8.26697 6.01717 8.68031 5.98389 9.18999 5.98389C9.69966 5.98389 10.113 6.01766 10.113 6.30304Z" fill="#383842"/>
<defs>
<linearGradient id="paint0_linear" x1="12.6325" y1="2.43144" x2="18.3828" y2="2.43144" gradientUnits="userSpaceOnUse">
<stop stop-color="#4F4C5F"/>
<stop offset="1" stop-color="#77718A"/>
</linearGradient>
<linearGradient id="paint1_linear" x1="-0.000795279" y1="2.43144" x2="5.74944" y2="2.43144" gradientUnits="userSpaceOnUse">
<stop stop-color="#77718A"/>
<stop offset="1" stop-color="#4F4C5F"/>
</linearGradient>
<linearGradient id="paint2_linear" x1="9.14573" y1="14.3759" x2="9.14573" y2="1.20574" gradientUnits="userSpaceOnUse">
<stop stop-color="#F0A83E"/>
<stop offset="1" stop-color="#FFF5E3"/>
</linearGradient>
<linearGradient id="paint3_linear" x1="10.4714" y1="5.70323" x2="16.5933" y2="5.70323" gradientUnits="userSpaceOnUse">
<stop stop-color="#EFC4AB"/>
<stop offset="1" stop-color="#3C2313"/>
</linearGradient>
</defs>
</svg>
